<svg id="visual" viewBox="0 0 960 540" width="960" height="540" xmlns="http://www.w3.org/2000/svg" xmlns:xlink="http://www.w3.org/1999/xlink" version="1.1"><rect x="0" y="0" width="960" height="540" fill="#f6f7f8"></rect><defs><linearGradient id="grad1_0" x1="43.8%" y1="0%" x2="100%" y2="100%"><stop offset="14.444444444444446%" stop-color="#f6f7f8" stop-opacity="1"></stop><stop offset="85.55555555555554%" stop-color="#f6f7f8" stop-opacity="1"></stop></linearGradient></defs><defs><linearGradient id="grad2_0" x1="0%" y1="0%" x2="56.3%" y2="100%"><stop offset="14.444444444444446%" stop-color="#f6f7f8" stop-opacity="1"></stop><stop offset="85.55555555555554%" stop-color="#f6f7f8" stop-opacity="1"></stop></linearGradient></defs><g transform="translate(960, 0)"><path d="M0 324C-43.1 292.6 -86.2 261.2 -137.5 238.2C-188.8 215.1 -248.2 200.3 -280.6 162C-313 123.7 -318.5 61.8 -324 0L0 0Z" fill="#dde6ee"></path></g><g transform="translate(0, 540)"><path d="M0 -324C53.8 -311.1 107.6 -298.2 157.5 -272.8C207.4 -247.4 253.5 -209.5 280.6 -162C307.7 -114.5 315.8 -57.2 324 0L0 0Z" fill="#dde6ee"></path></g></svg>