<?xml version="1.0" standalone="no"?>
<!DOCTYPE svg PUBLIC "-//W3C//DTD SVG 20010904//EN"
 "http://www.w3.org/TR/2001/REC-SVG-20010904/DTD/svg10.dtd">
<svg version="1.0" xmlns="http://www.w3.org/2000/svg"
 width="678.000000pt" height="678.000000pt" viewBox="0 0 678.000000 678.000000"
 preserveAspectRatio="xMidYMid meet">
<metadata>
Created by potrace 1.14, written by Peter Selinger 2001-2017
</metadata>
<g transform="translate(0.000000,678.000000) scale(0.100000,-0.100000)"
fill="#000000" stroke="none">
<path d="M2279 6477 l-1096 -302 -12 -71 c-28 -167 -154 -323 -303 -375 l-38
-13 0 -1704 c0 -1903 -3 -1814 70 -2033 162 -489 575 -952 1232 -1383 362
-237 754 -430 1110 -545 70 -23 140 -41 155 -41 36 0 317 95 459 155 548 233
1111 603 1484 975 263 263 455 553 544 822 71 211 66 71 66 2005 l0 1748 -68
32 c-144 70 -249 217 -268 376 l-6 52 -1107 303 c-608 166 -1110 302 -1116
301 -5 0 -503 -137 -1106 -302z m2131 -202 c552 -152 1004 -276 1004 -278 31
-92 43 -121 68 -164 46 -83 112 -157 188 -214 l70 -52 0 -1632 c0 -1806 3
-1707 -66 -1905 -83 -240 -228 -461 -459 -699 -419 -433 -1080 -846 -1680
-1051 l-141 -48 -124 43 c-463 157 -921 411 -1370 759 -145 112 -447 416 -540
543 -136 188 -224 362 -278 553 l-27 95 -3 1676 -2 1676 22 10 c44 20 130 98
175 158 49 64 123 207 123 237 0 11 10 20 28 24 15 4 466 128 1002 275 536
147 982 268 990 268 9 1 468 -123 1020 -274z"/>
<path d="M2475 6065 l-920 -252 -35 -64 c-55 -100 -99 -158 -172 -232 l-68
-68 0 -1465 c0 -1441 0 -1468 21 -1567 36 -178 110 -350 233 -542 320 -501
1057 -1076 1739 -1356 l121 -50 81 32 c506 200 1083 589 1470 991 272 283 453
576 533 865 l27 98 3 1499 2 1500 -48 42 c-61 53 -149 168 -194 253 l-34 64
-869 238 c-479 131 -893 244 -920 252 l-50 14 -920 -252z m1828 -66 l889 -244
25 -50 c39 -77 80 -132 160 -216 l73 -76 -2 -1139 -3 -1139 -2050 0 -2050 0
-3 1140 -2 1139 63 66 c80 82 115 128 160 210 l36 65 893 247 c491 135 900
245 908 243 8 -1 415 -112 903 -246z m-2024 -3115 c129 -38 191 -151 191 -349
l0 -85 -100 0 -100 0 0 95 c0 52 -5 105 -11 118 -25 54 -114 64 -160 18 l-29
-29 0 -412 0 -412 29 -29 c39 -38 97 -40 138 -5 27 24 28 27 33 153 l5 128 99
3 98 3 -4 -138 c-6 -167 -22 -218 -87 -283 -107 -107 -325 -107 -432 0 -82 82
-83 88 -87 545 -4 493 2 538 91 624 68 65 211 89 326 55z m847 -22 c63 -29 96
-62 126 -127 22 -47 23 -62 23 -250 0 -188 -1 -203 -23 -251 -46 -101 -122
-144 -269 -152 l-93 -5 0 -238 0 -239 -105 0 -105 0 0 646 0 646 198 -4 c179
-3 202 -6 248 -26z m623 -49 c11 -43 56 -208 98 -366 l78 -288 3 366 2 366 93
-3 92 -3 3 -642 2 -643 -107 0 -108 0 -120 446 -120 446 -3 -446 -2 -446 -95
0 -95 0 0 645 0 645 129 0 129 0 21 -77z m801 -452 l0 -530 24 -28 c21 -24 32
-28 76 -28 44 0 55 4 76 28 l24 28 0 530 0 529 100 0 101 0 -3 -542 c-4 -604
-3 -593 -73 -675 -50 -58 -121 -86 -220 -87 -44 -1 -101 5 -127 13 -56 16
-122 69 -147 120 -38 74 -41 128 -41 656 l0 515 105 0 105 0 0 -529z"/>
<path d="M3360 5866 c-14 -7 -352 -178 -751 -380 l-727 -366 37 -95 36 -95
103 0 102 0 0 -560 0 -560 95 0 95 0 0 560 0 560 115 0 115 0 0 -560 0 -560
70 0 70 0 0 560 0 560 95 0 95 0 0 -560 0 -560 90 0 90 0 0 560 0 560 100 0
100 0 0 -560 0 -560 90 0 90 0 0 560 0 560 115 0 115 0 0 -560 0 -560 90 0 90
0 0 560 0 560 75 0 75 0 0 -560 0 -560 90 0 90 0 0 560 0 560 115 0 115 0 0
-560 0 -560 75 0 75 0 0 560 0 559 116 3 116 3 34 84 c19 47 34 90 34 97 0 10
-1487 766 -1502 764 -2 -1 -14 -7 -28 -14z m110 -257 c107 -60 105 -226 -4
-282 -111 -58 -238 19 -238 144 0 124 132 199 242 138z"/>
<path d="M2010 3725 c0 -24 -5 -35 -15 -35 -12 0 -15 -18 -15 -105 l0 -105
-55 0 -55 0 0 -75 0 -75 1525 0 1525 0 0 75 0 75 -55 0 -55 0 0 104 c0 95 -2
104 -20 109 -15 4 -20 14 -20 36 l0 31 -1380 0 -1380 0 0 -35z"/>
<path d="M2890 2485 l0 -215 63 0 c109 0 127 31 127 215 0 184 -18 215 -127
215 l-63 0 0 -215z"/>
</g>
</svg>
